<?xml version="1.0" encoding="UTF-8"?>
<!--Generator: Apple Native CoreSVG 326-->
<!DOCTYPE svg
PUBLIC "-//W3C//DTD SVG 1.1//EN"
       "http://www.w3.org/Graphics/SVG/1.1/DTD/svg11.dtd">
<svg version="1.1" xmlns="http://www.w3.org/2000/svg" xmlns:xlink="http://www.w3.org/1999/xlink" viewBox="0 0 99.6094 99.6582">
 <g>
  <rect height="99.6582" opacity="0" width="99.6094" x="0" y="0"/>
  <path d="M99.6094 49.8047C99.6094 77.2461 77.2949 99.6094 49.8047 99.6094C22.3633 99.6094 0 77.2461 0 49.8047C0 22.3145 22.3633 0 49.8047 0C77.2949 0 99.6094 22.3145 99.6094 49.8047ZM64.9902 30.4199L44.1406 63.916L34.2285 51.123C33.0078 49.5117 31.9336 49.0723 30.5176 49.0723C28.3203 49.0723 26.6113 50.8789 26.6113 53.0762C26.6113 54.1992 27.0508 55.2734 27.7832 56.25L40.0391 71.2891C41.3086 72.998 42.6758 73.6816 44.3359 73.6816C45.9961 73.6816 47.4121 72.9004 48.4375 71.2891L71.3867 35.1562C71.9727 34.1309 72.6074 33.0078 72.6074 31.9336C72.6074 29.6387 70.6055 28.1738 68.457 28.1738C67.1875 28.1738 65.918 28.9551 64.9902 30.4199Z" fill="white" fill-opacity="0.85"/>
 </g>
</svg>
